<svg xmlns="http://www.w3.org/2000/svg" width="164.397" height="60.005" viewBox="0 0 164.397 60.005"><g transform="translate(-3358.72 -1674.948)"><g transform="translate(3417.305 1675.504)"><g transform="translate(1.68 0.276)"><path d="M3394.8,1688.619a.239.239,0,0,1-.041.143.274.274,0,0,1-.141.1,1.533,1.533,0,0,1-.27.062,3.6,3.6,0,0,1-.841,0,1.541,1.541,0,0,1-.276-.062.285.285,0,0,1-.143-.1.253.253,0,0,1-.041-.143v-12.656a.236.236,0,0,1,.046-.143.32.32,0,0,1,.154-.1,1.654,1.654,0,0,1,.275-.06,2.59,2.59,0,0,1,.4-.027,2.788,2.788,0,0,1,.424.027,1.576,1.576,0,0,1,.27.06.275.275,0,0,1,.141.1.239.239,0,0,1,.041.143Z" transform="translate(-3393.045 -1675.636)" fill="#040505"/></g><g transform="translate(6.725 3.64)"><path d="M3403.8,1687.17a.232.232,0,0,1-.041.138.335.335,0,0,1-.133.1.99.99,0,0,1-.256.062,3.637,3.637,0,0,1-.407.02,3.77,3.77,0,0,1-.419-.02.978.978,0,0,1-.254-.062.312.312,0,0,1-.133-.1.222.222,0,0,1-.041-.138v-5.37a5.317,5.317,0,0,0-.122-1.265,2.628,2.628,0,0,0-.357-.825,1.545,1.545,0,0,0-.606-.53,1.935,1.935,0,0,0-.862-.184,2.171,2.171,0,0,0-1.263.449,6.784,6.784,0,0,0-1.325,1.314v6.41a.232.232,0,0,1-.041.138.308.308,0,0,1-.133.1.978.978,0,0,1-.254.062,3.808,3.808,0,0,1-.419.02,3.627,3.627,0,0,1-.406-.02,1.042,1.042,0,0,1-.26-.062.274.274,0,0,1-.133-.1.245.245,0,0,1-.037-.138V1678a.277.277,0,0,1,.032-.138.26.26,0,0,1,.122-.1.667.667,0,0,1,.235-.062,3.531,3.531,0,0,1,.376-.016,3.643,3.643,0,0,1,.373.016.587.587,0,0,1,.229.062.325.325,0,0,1,.118.1.258.258,0,0,1,.035.138v1.212a5.651,5.651,0,0,1,1.544-1.269,3.316,3.316,0,0,1,1.553-.4,3.463,3.463,0,0,1,1.544.309,2.768,2.768,0,0,1,1.014.832,3.3,3.3,0,0,1,.555,1.218,7.137,7.137,0,0,1,.17,1.677Z" transform="translate(-3395.9 -1677.54)" fill="#040505"/></g><g transform="translate(16.416 3.781)"><path d="M3410.119,1677.917a.819.819,0,0,1-.005.087q-.005.045-.016.1a.959.959,0,0,1-.024.113c-.011.041-.021.085-.035.133l-3.129,8.713a.483.483,0,0,1-.108.184.436.436,0,0,1-.2.113,1.527,1.527,0,0,1-.337.055c-.134.01-.306.016-.509.016s-.373-.007-.508-.02a1.78,1.78,0,0,1-.332-.062.476.476,0,0,1-.2-.113.491.491,0,0,1-.113-.173l-3.119-8.713c-.026-.081-.047-.154-.065-.214a1.161,1.161,0,0,1-.03-.138.72.72,0,0,1-.005-.076.261.261,0,0,1,.041-.143.275.275,0,0,1,.138-.1.89.89,0,0,1,.254-.046q.16-.011.393-.01c.2,0,.355.005.474.016a.911.911,0,0,1,.275.057.328.328,0,0,1,.143.1.75.75,0,0,1,.087.154l2.589,7.562.041.122.03-.122,2.558-7.562a.363.363,0,0,1,.071-.154.382.382,0,0,1,.148-.1.89.89,0,0,1,.265-.057c.111-.01.26-.016.444-.016q.233,0,.387.01a.7.7,0,0,1,.239.051.289.289,0,0,1,.124.1A.257.257,0,0,1,3410.119,1677.917Z" transform="translate(-3401.385 -1677.62)" fill="#040505"/></g><g transform="translate(26.528 3.64)"><path d="M3415.545,1682.187a.7.7,0,0,1-.2.565.687.687,0,0,1-.455.168h-6.041a5.686,5.686,0,0,0,.153,1.376,2.664,2.664,0,0,0,.513,1.05,2.3,2.3,0,0,0,.931.671,3.7,3.7,0,0,0,1.4.235,5.779,5.779,0,0,0,1.167-.106,6.975,6.975,0,0,0,.886-.24c.25-.088.456-.168.615-.24a1.021,1.021,0,0,1,.364-.106.24.24,0,0,1,.127.035.25.25,0,0,1,.088.108.782.782,0,0,1,.046.2,3.065,3.065,0,0,1,.014.311,2.139,2.139,0,0,1-.009.23c-.007.064-.016.122-.026.173a.441.441,0,0,1-.051.138.5.5,0,0,1-.092.116,1.427,1.427,0,0,1-.33.184,4.776,4.776,0,0,1-.714.249,9.7,9.7,0,0,1-1.014.219,7.341,7.341,0,0,1-1.229.1,5.7,5.7,0,0,1-1.982-.316,3.684,3.684,0,0,1-1.431-.936,4.026,4.026,0,0,1-.876-1.56,7.307,7.307,0,0,1-.3-2.18,6.842,6.842,0,0,1,.306-2.125,4.5,4.5,0,0,1,.881-1.6,3.833,3.833,0,0,1,1.391-1.009,4.553,4.553,0,0,1,1.824-.352,4.4,4.4,0,0,1,1.839.346,3.461,3.461,0,0,1,1.25.931,3.766,3.766,0,0,1,.719,1.376,6.042,6.042,0,0,1,.229,1.687Zm-1.691-.5a3.076,3.076,0,0,0-.588-2.08,2.252,2.252,0,0,0-1.841-.752,2.443,2.443,0,0,0-1.1.233,2.391,2.391,0,0,0-.79.622,2.839,2.839,0,0,0-.493.9,3.758,3.758,0,0,0-.194,1.074Z" transform="translate(-3407.108 -1677.54)" fill="#040505"/></g><g transform="translate(36.833 3.64)"><path d="M3419.431,1684.673a2.909,2.909,0,0,1-.26,1.254,2.552,2.552,0,0,1-.738.926,3.317,3.317,0,0,1-1.142.571,5.189,5.189,0,0,1-1.458.194,5.469,5.469,0,0,1-.933-.076,5.559,5.559,0,0,1-.795-.195,4.055,4.055,0,0,1-.6-.244,1.727,1.727,0,0,1-.357-.23.6.6,0,0,1-.164-.286,1.952,1.952,0,0,1-.05-.5,2.431,2.431,0,0,1,.02-.327,1.1,1.1,0,0,1,.051-.214.214.214,0,0,1,.214-.152.733.733,0,0,1,.332.136c.147.092.325.193.539.3a5.079,5.079,0,0,0,.76.3,3.373,3.373,0,0,0,1.009.138,3.056,3.056,0,0,0,.774-.092,1.9,1.9,0,0,0,.6-.271,1.2,1.2,0,0,0,.392-.454,1.444,1.444,0,0,0,.138-.652,1.058,1.058,0,0,0-.2-.652,1.9,1.9,0,0,0-.525-.468,4.416,4.416,0,0,0-.733-.362c-.272-.106-.551-.215-.841-.332a8.5,8.5,0,0,1-.846-.392,3.186,3.186,0,0,1-.739-.534,2.465,2.465,0,0,1-.525-.754,2.537,2.537,0,0,1-.2-1.05,2.631,2.631,0,0,1,.208-1.035,2.412,2.412,0,0,1,.625-.866,3.16,3.16,0,0,1,1.046-.6,4.358,4.358,0,0,1,1.461-.223,4.5,4.5,0,0,1,.735.06,4.96,4.96,0,0,1,.663.154,3.024,3.024,0,0,1,.5.2,2.171,2.171,0,0,1,.316.189.584.584,0,0,1,.143.143.431.431,0,0,1,.051.136c.009.051.02.115.03.189a2.121,2.121,0,0,1,.014.276,2.578,2.578,0,0,1-.014.3.751.751,0,0,1-.051.209.262.262,0,0,1-.087.118.2.2,0,0,1-.111.035.549.549,0,0,1-.265-.113,3.868,3.868,0,0,0-.449-.239,5.1,5.1,0,0,0-.648-.24,2.963,2.963,0,0,0-.85-.111,2.62,2.62,0,0,0-.754.1,1.447,1.447,0,0,0-.536.274,1.2,1.2,0,0,0-.316.424,1.312,1.312,0,0,0-.106.53,1.066,1.066,0,0,0,.2.666,1.948,1.948,0,0,0,.53.475,4.507,4.507,0,0,0,.744.366c.279.11.564.221.852.338s.575.244.855.387a3.207,3.207,0,0,1,.75.519,2.323,2.323,0,0,1,.524.733A2.409,2.409,0,0,1,3419.431,1684.673Z" transform="translate(-3412.94 -1677.54)" fill="#040505"/></g><g transform="translate(44.506)"><path d="M3426.485,1679.313a.517.517,0,0,1,.418.138.616.616,0,0,1,.111.4v8.9a.219.219,0,0,1-.041.138.309.309,0,0,1-.138.1,1.048,1.048,0,0,1-.26.062,3.526,3.526,0,0,1-.4.02,3.788,3.788,0,0,1-.417-.02,1.082,1.082,0,0,1-.26-.062.311.311,0,0,1-.138-.1.232.232,0,0,1-.041-.138v-8.041h-4.739v5.117a2.928,2.928,0,0,0,.279,1.431,1.06,1.06,0,0,0,1,.484,1.675,1.675,0,0,0,.419-.046,3.017,3.017,0,0,0,.327-.1c.1-.034.177-.065.244-.1a.435.435,0,0,1,.184-.046.214.214,0,0,1,.1.025.17.17,0,0,1,.071.1,1.137,1.137,0,0,1,.046.194,1.894,1.894,0,0,1,.02.305,1.989,1.989,0,0,1-.041.463.543.543,0,0,1-.122.255.734.734,0,0,1-.244.159,2.068,2.068,0,0,1-.373.117c-.138.03-.286.056-.444.076a3.446,3.446,0,0,1-.468.032,3.536,3.536,0,0,1-1.223-.189,1.98,1.98,0,0,1-.835-.571,2.359,2.359,0,0,1-.474-.968,5.69,5.69,0,0,1-.148-1.382v-5.361h-1.285a.275.275,0,0,1-.244-.162,1.13,1.13,0,0,1-.092-.53,1.821,1.821,0,0,1,.025-.325.961.961,0,0,1,.067-.219.272.272,0,0,1,.106-.124.323.323,0,0,1,.148-.035h1.274v-2.18a.271.271,0,0,1,.035-.133.315.315,0,0,1,.133-.108.919.919,0,0,1,.26-.065,3.267,3.267,0,0,1,.408-.021,3.328,3.328,0,0,1,.417.021.839.839,0,0,1,.256.065.35.35,0,0,1,.133.108.24.24,0,0,1,.041.133v2.18Zm.724-2.832a1.1,1.1,0,0,1-.225.8,1.689,1.689,0,0,1-1.636.005,1.1,1.1,0,0,1-.219-.79,1.114,1.114,0,0,1,.224-.806,1.215,1.215,0,0,1,.825-.214,1.184,1.184,0,0,1,.811.21A1.081,1.081,0,0,1,3427.209,1676.48Z" transform="translate(-3417.283 -1675.48)" fill="#040505"/></g><g transform="translate(56.318 3.659)"><path d="M3432.65,1678.408a1.02,1.02,0,0,1-.1.514.283.283,0,0,1-.249.157h-1.315a2.122,2.122,0,0,1,.5.811,3.026,3.026,0,0,1,.141.922,3.631,3.631,0,0,1-.254,1.406,2.791,2.791,0,0,1-.728,1.034,3.275,3.275,0,0,1-1.125.648,4.474,4.474,0,0,1-1.449.223,3.806,3.806,0,0,1-1.064-.147,2.22,2.22,0,0,1-.781-.373,1.574,1.574,0,0,0-.3.419,1.194,1.194,0,0,0-.117.539.7.7,0,0,0,.331.592,1.6,1.6,0,0,0,.882.255l2.4.1a4.932,4.932,0,0,1,1.253.189,3.088,3.088,0,0,1,.989.479,2.216,2.216,0,0,1,.652.763,2.272,2.272,0,0,1,.235,1.055,2.854,2.854,0,0,1-.265,1.2,2.815,2.815,0,0,1-.811,1,4.036,4.036,0,0,1-1.391.682,7.057,7.057,0,0,1-2,.251,8.167,8.167,0,0,1-1.891-.189,4.091,4.091,0,0,1-1.279-.514,1.986,1.986,0,0,1-.723-.779,2.179,2.179,0,0,1-.225-.984,2.578,2.578,0,0,1,.081-.652,2.4,2.4,0,0,1,.25-.6,2.966,2.966,0,0,1,.419-.544,5.246,5.246,0,0,1,.576-.514,1.791,1.791,0,0,1-.738-.643,1.545,1.545,0,0,1-.24-.836,2.364,2.364,0,0,1,.254-1.11,3.668,3.668,0,0,1,.632-.878,2.936,2.936,0,0,1-.5-.85,3.188,3.188,0,0,1-.184-1.147,3.56,3.56,0,0,1,.265-1.406,2.993,2.993,0,0,1,.735-1.05,3.17,3.17,0,0,1,1.125-.657,4.292,4.292,0,0,1,1.431-.23,6.34,6.34,0,0,1,.781.046,5.285,5.285,0,0,1,.677.127h2.772a.28.28,0,0,1,.26.168A1.175,1.175,0,0,1,3432.65,1678.408Zm-1.783,9.681a1.033,1.033,0,0,0-.484-.912,2.452,2.452,0,0,0-1.31-.341l-2.375-.081a4.109,4.109,0,0,0-.535.484,2.693,2.693,0,0,0-.332.438,1.47,1.47,0,0,0-.168.412,1.923,1.923,0,0,0-.046.419,1.081,1.081,0,0,0,.673,1,4.2,4.2,0,0,0,1.875.341,4.687,4.687,0,0,0,1.279-.148,2.408,2.408,0,0,0,.831-.392,1.443,1.443,0,0,0,.454-.56A1.631,1.631,0,0,0,3430.868,1688.089Zm-.846-7.266a2,2,0,0,0-.514-1.463,1.959,1.959,0,0,0-1.463-.525,2.064,2.064,0,0,0-.85.163,1.657,1.657,0,0,0-.6.449,1.877,1.877,0,0,0-.357.657,2.587,2.587,0,0,0-.117.779,1.792,1.792,0,0,0,1.956,1.947,2.181,2.181,0,0,0,.868-.159,1.633,1.633,0,0,0,.606-.438,1.852,1.852,0,0,0,.356-.647A2.486,2.486,0,0,0,3430.021,1680.823Z" transform="translate(-3423.968 -1677.551)" fill="#040505"/></g><g transform="translate(66.476 3.64)"><path d="M3437.249,1687.18a.215.215,0,0,1-.081.184.591.591,0,0,1-.225.092,2.241,2.241,0,0,1-.418.03,2.441,2.441,0,0,1-.422-.03.52.52,0,0,1-.23-.092.235.235,0,0,1-.071-.184v-.917a4.532,4.532,0,0,1-1.341,1,3.532,3.532,0,0,1-1.563.357,4.22,4.22,0,0,1-1.31-.189,2.831,2.831,0,0,1-1-.544,2.463,2.463,0,0,1-.643-.876,2.917,2.917,0,0,1-.229-1.182,2.746,2.746,0,0,1,.316-1.346,2.645,2.645,0,0,1,.908-.947,4.471,4.471,0,0,1,1.447-.565,8.888,8.888,0,0,1,1.926-.189h1.263v-.714a3.553,3.553,0,0,0-.111-.937,1.624,1.624,0,0,0-.362-.678,1.55,1.55,0,0,0-.647-.408,3.009,3.009,0,0,0-.979-.138,3.884,3.884,0,0,0-1.117.148,5.912,5.912,0,0,0-.866.327c-.248.118-.454.228-.622.325a.853.853,0,0,1-.371.148.257.257,0,0,1-.143-.041.39.39,0,0,1-.108-.122.663.663,0,0,1-.065-.21,1.761,1.761,0,0,1-.021-.279,1.858,1.858,0,0,1,.035-.4.592.592,0,0,1,.175-.281,2.2,2.2,0,0,1,.473-.311,5.135,5.135,0,0,1,.774-.325,7.105,7.105,0,0,1,.958-.246,5.8,5.8,0,0,1,1.049-.1,5.536,5.536,0,0,1,1.683.223,2.742,2.742,0,0,1,1.122.657,2.545,2.545,0,0,1,.62,1.076,5.145,5.145,0,0,1,.194,1.5Zm-1.672-4.189h-1.437a5.431,5.431,0,0,0-1.2.118,2.46,2.46,0,0,0-.847.346,1.443,1.443,0,0,0-.493.55,1.645,1.645,0,0,0-.159.739,1.483,1.483,0,0,0,.455,1.138,1.794,1.794,0,0,0,1.269.422,2.356,2.356,0,0,0,1.228-.335,5.28,5.28,0,0,0,1.187-1.03Z" transform="translate(-3429.717 -1677.54)" fill="#040505"/></g><g transform="translate(75.874)"><path d="M3444.238,1679.313a.516.516,0,0,1,.417.138.619.619,0,0,1,.113.4v8.9a.232.232,0,0,1-.041.138.307.307,0,0,1-.138.1,1.048,1.048,0,0,1-.26.062,3.526,3.526,0,0,1-.4.02,3.808,3.808,0,0,1-.419-.02,1.094,1.094,0,0,1-.26-.062.308.308,0,0,1-.136-.1.23.23,0,0,1-.043-.138v-8.041h-4.738v5.117a2.909,2.909,0,0,0,.281,1.431,1.059,1.059,0,0,0,1,.484,1.682,1.682,0,0,0,.418-.046,2.89,2.89,0,0,0,.325-.1c.1-.034.179-.065.245-.1a.431.431,0,0,1,.182-.046.206.206,0,0,1,.1.025.173.173,0,0,1,.072.1,1.288,1.288,0,0,1,.046.194,1.84,1.84,0,0,1,.02.305,2.021,2.021,0,0,1-.041.463.548.548,0,0,1-.122.255.745.745,0,0,1-.246.159,2.045,2.045,0,0,1-.371.117c-.14.03-.286.056-.443.076a3.469,3.469,0,0,1-.468.032,3.55,3.55,0,0,1-1.225-.189,1.99,1.99,0,0,1-.836-.571,2.383,2.383,0,0,1-.474-.968,5.772,5.772,0,0,1-.146-1.382v-5.361h-1.284a.279.279,0,0,1-.246-.162,1.153,1.153,0,0,1-.09-.53,1.821,1.821,0,0,1,.025-.325.994.994,0,0,1,.065-.219.276.276,0,0,1,.108-.124.319.319,0,0,1,.148-.035h1.274v-2.18a.271.271,0,0,1,.035-.133.306.306,0,0,1,.133-.108.915.915,0,0,1,.26-.065,3.251,3.251,0,0,1,.408-.021,3.328,3.328,0,0,1,.417.021.813.813,0,0,1,.254.065.339.339,0,0,1,.133.108.229.229,0,0,1,.041.133v2.18Zm.725-2.832a1.105,1.105,0,0,1-.225.8,1.2,1.2,0,0,1-.827.214,1.186,1.186,0,0,1-.81-.208,1.085,1.085,0,0,1-.219-.79,1.114,1.114,0,0,1,.225-.806,1.211,1.211,0,0,1,.825-.214,1.189,1.189,0,0,1,.811.21A1.081,1.081,0,0,1,3444.963,1676.48Z" transform="translate(-3435.036 -1675.48)" fill="#040505"/></g><g transform="translate(87.262 3.781)"><path d="M3450.215,1677.917a.819.819,0,0,1-.005.087c0,.03-.009.062-.014.1s-.016.073-.027.113-.021.085-.035.133l-3.129,8.713a.506.506,0,0,1-.105.184.461.461,0,0,1-.2.113,1.532,1.532,0,0,1-.336.055c-.136.01-.306.016-.509.016s-.375-.007-.511-.02a1.762,1.762,0,0,1-.331-.062.453.453,0,0,1-.311-.286l-3.119-8.713c-.028-.081-.05-.154-.067-.214a1.4,1.4,0,0,1-.03-.138.7.7,0,0,1,0-.076.257.257,0,0,1,.041-.143.273.273,0,0,1,.138-.1.9.9,0,0,1,.254-.046c.105-.007.237-.01.392-.01.2,0,.355.005.475.016a.917.917,0,0,1,.274.057.319.319,0,0,1,.143.1.728.728,0,0,1,.086.154l2.589,7.562.041.122.032-.122,2.557-7.562a.343.343,0,0,1,.072-.154.353.353,0,0,1,.146-.1.9.9,0,0,1,.265-.057c.113-.01.26-.016.443-.016.156,0,.287,0,.387.01a.713.713,0,0,1,.241.051.3.3,0,0,1,.122.1A.262.262,0,0,1,3450.215,1677.917Z" transform="translate(-3441.481 -1677.62)" fill="#040505"/></g><g transform="translate(97.374 3.64)"><path d="M3455.643,1682.187a.7.7,0,0,1-.2.565.686.686,0,0,1-.454.168h-6.041a5.66,5.66,0,0,0,.154,1.376,2.664,2.664,0,0,0,.512,1.05,2.3,2.3,0,0,0,.931.671,3.7,3.7,0,0,0,1.4.235,5.8,5.8,0,0,0,1.168-.106,7.012,7.012,0,0,0,.885-.24c.25-.088.456-.168.614-.24a1.024,1.024,0,0,1,.364-.106.24.24,0,0,1,.127.035.246.246,0,0,1,.088.108.764.764,0,0,1,.045.2,2.914,2.914,0,0,1,.015.311,2.127,2.127,0,0,1-.009.23c-.007.064-.016.122-.026.173a.429.429,0,0,1-.051.138.512.512,0,0,1-.092.116,1.435,1.435,0,0,1-.331.184,4.748,4.748,0,0,1-.713.249,9.681,9.681,0,0,1-1.015.219,7.313,7.313,0,0,1-1.228.1,5.7,5.7,0,0,1-1.983-.316,3.688,3.688,0,0,1-1.431-.936,4.032,4.032,0,0,1-.876-1.56,7.292,7.292,0,0,1-.295-2.18,6.843,6.843,0,0,1,.305-2.125,4.5,4.5,0,0,1,.882-1.6,3.824,3.824,0,0,1,1.391-1.009,4.55,4.55,0,0,1,1.823-.352,4.414,4.414,0,0,1,1.841.346,3.458,3.458,0,0,1,1.248.931,3.781,3.781,0,0,1,.719,1.376,6.06,6.06,0,0,1,.229,1.687Zm-1.693-.5a3.07,3.07,0,0,0-.588-2.08,2.251,2.251,0,0,0-1.841-.752,2.443,2.443,0,0,0-1.1.233,2.386,2.386,0,0,0-.79.622,2.84,2.84,0,0,0-.493.9,3.758,3.758,0,0,0-.194,1.074Z" transform="translate(-3447.204 -1677.54)" fill="#040505"/></g><g transform="translate(0 20.192)"><path d="M3396.955,1696.834a6.694,6.694,0,0,1-.144,1.438,2.775,2.775,0,0,1-.489,1.11,2.253,2.253,0,0,1-.912.708,3.449,3.449,0,0,1-1.4.251,3.544,3.544,0,0,1-1.08-.169,2.735,2.735,0,0,1-.408-.163.845.845,0,0,1-.229-.147.915.915,0,0,1-.092-.124.655.655,0,0,1-.06-.147,1.067,1.067,0,0,1-.037-.214c-.005-.086-.009-.189-.009-.311a3.628,3.628,0,0,1,.014-.373.755.755,0,0,1,.057-.235.3.3,0,0,1,.1-.122.26.26,0,0,1,.138-.035.431.431,0,0,1,.208.076c.085.051.187.108.306.168a2.667,2.667,0,0,0,.414.169,2.042,2.042,0,0,0,1.141-.01.821.821,0,0,0,.406-.322,1.693,1.693,0,0,0,.246-.646,5.727,5.727,0,0,0,.082-1.076v-9.437a.241.241,0,0,1,.041-.133.29.29,0,0,1,.143-.1,1.059,1.059,0,0,1,.271-.062,4.157,4.157,0,0,1,.839,0,1,1,0,0,1,.271.062.329.329,0,0,1,.143.1.222.222,0,0,1,.046.133Z" transform="translate(-3392.094 -1686.908)" fill="#040505"/></g><g transform="translate(7.439 23.556)"><path d="M3405.476,1693.754a6.888,6.888,0,0,1-.3,2.064,4.56,4.56,0,0,1-.881,1.626,4.019,4.019,0,0,1-1.468,1.065,5.113,5.113,0,0,1-2.043.382,5.3,5.3,0,0,1-1.973-.336,3.591,3.591,0,0,1-1.4-.979,4.156,4.156,0,0,1-.835-1.558,7.279,7.279,0,0,1-.274-2.08,6.945,6.945,0,0,1,.29-2.064,4.509,4.509,0,0,1,.876-1.625,3.954,3.954,0,0,1,1.463-1.06,5.154,5.154,0,0,1,2.047-.376,5.29,5.29,0,0,1,1.972.335,3.613,3.613,0,0,1,1.4.979,4.223,4.223,0,0,1,.841,1.558A7.081,7.081,0,0,1,3405.476,1693.754Zm-1.744.113a6.863,6.863,0,0,0-.138-1.406,3.418,3.418,0,0,0-.459-1.163,2.264,2.264,0,0,0-.862-.79,2.873,2.873,0,0,0-1.356-.29,2.9,2.9,0,0,0-1.292.265,2.345,2.345,0,0,0-.889.749,3.348,3.348,0,0,0-.519,1.147,5.816,5.816,0,0,0-.17,1.447,6.949,6.949,0,0,0,.138,1.415,3.366,3.366,0,0,0,.463,1.157,2.316,2.316,0,0,0,.87.785,2.859,2.859,0,0,0,1.359.291,2.907,2.907,0,0,0,1.284-.265,2.4,2.4,0,0,0,.894-.744,3.23,3.23,0,0,0,.514-1.142A6.036,6.036,0,0,0,3403.732,1693.867Z" transform="translate(-3396.304 -1688.812)" fill="#040505"/></g><g transform="translate(19.139 23.699)"><path d="M3410.835,1698.381a.239.239,0,0,1-.036.136.258.258,0,0,1-.127.1.906.906,0,0,1-.239.062,2.685,2.685,0,0,1-.362.019,2.905,2.905,0,0,1-.383-.019.819.819,0,0,1-.233-.062.246.246,0,0,1-.119-.1.291.291,0,0,1-.03-.136v-1.214a5.7,5.7,0,0,1-1.55,1.263,3.317,3.317,0,0,1-1.548.4,3.489,3.489,0,0,1-1.544-.306,2.7,2.7,0,0,1-1.014-.83,3.356,3.356,0,0,1-.555-1.223,7.272,7.272,0,0,1-.169-1.7v-5.566a.24.24,0,0,1,.037-.136.289.289,0,0,1,.136-.1.884.884,0,0,1,.265-.062c.11-.01.246-.014.408-.014s.3,0,.408.014a.8.8,0,0,1,.26.062.325.325,0,0,1,.138.1.23.23,0,0,1,.041.136v5.341a5.7,5.7,0,0,0,.117,1.288,2.456,2.456,0,0,0,.357.827,1.675,1.675,0,0,0,.606.53,1.852,1.852,0,0,0,.856.188,2.143,2.143,0,0,0,1.258-.447,7.171,7.171,0,0,0,1.331-1.316v-6.41a.251.251,0,0,1,.035-.136.3.3,0,0,1,.138-.1.875.875,0,0,1,.26-.062c.106-.01.244-.014.414-.014s.3,0,.406.014a.762.762,0,0,1,.256.062.384.384,0,0,1,.136.1.2.2,0,0,1,.046.136Z" transform="translate(-3402.926 -1688.893)" fill="#040505"/></g><g transform="translate(30.094 23.556)"><path d="M3414.487,1689.872c0,.148,0,.274-.009.376a1.01,1.01,0,0,1-.041.24.367.367,0,0,1-.078.133.172.172,0,0,1-.127.046.569.569,0,0,1-.2-.046c-.08-.032-.168-.062-.266-.092s-.21-.06-.332-.087a1.753,1.753,0,0,0-.4-.041,1.288,1.288,0,0,0-.5.1,1.939,1.939,0,0,0-.516.337,4.135,4.135,0,0,0-.565.622c-.2.258-.414.574-.652.947v6.034a.227.227,0,0,1-.041.136.3.3,0,0,1-.132.1.924.924,0,0,1-.254.062,3.473,3.473,0,0,1-.418.019,3.322,3.322,0,0,1-.407-.019.979.979,0,0,1-.26-.062.259.259,0,0,1-.132-.1.244.244,0,0,1-.037-.136v-9.174a.274.274,0,0,1,.032-.136.252.252,0,0,1,.122-.1.712.712,0,0,1,.235-.062,3.607,3.607,0,0,1,.376-.014,3.7,3.7,0,0,1,.373.014.619.619,0,0,1,.228.062.317.317,0,0,1,.119.1.255.255,0,0,1,.035.136v1.336a7.152,7.152,0,0,1,.708-.9,3.924,3.924,0,0,1,.625-.544,1.972,1.972,0,0,1,.586-.276,2.286,2.286,0,0,1,.587-.076c.086,0,.187.005.3.016a2.635,2.635,0,0,1,.352.055,3.392,3.392,0,0,1,.331.092.7.7,0,0,1,.21.1.276.276,0,0,1,.081.1.767.767,0,0,1,.035.117,1.252,1.252,0,0,1,.02.208C3414.485,1689.591,3414.487,1689.715,3414.487,1689.872Z" transform="translate(-3409.126 -1688.812)" fill="#040505"/></g><g transform="translate(37.372 23.556)"><path d="M3421.143,1698.443a.231.231,0,0,1-.041.136.315.315,0,0,1-.133.1.924.924,0,0,1-.254.062,3.363,3.363,0,0,1-.408.019,3.473,3.473,0,0,1-.418-.019.933.933,0,0,1-.254-.062.306.306,0,0,1-.133-.1.231.231,0,0,1-.041-.136v-5.371a5.3,5.3,0,0,0-.122-1.263,2.636,2.636,0,0,0-.357-.827,1.556,1.556,0,0,0-.606-.528,1.909,1.909,0,0,0-.86-.184,2.18,2.18,0,0,0-1.266.447,6.9,6.9,0,0,0-1.325,1.316v6.41a.231.231,0,0,1-.041.136.289.289,0,0,1-.133.1.906.906,0,0,1-.254.062,3.468,3.468,0,0,1-.417.019,3.327,3.327,0,0,1-.408-.019.974.974,0,0,1-.26-.062.261.261,0,0,1-.133-.1.243.243,0,0,1-.035-.136v-9.174a.3.3,0,0,1,.03-.136.274.274,0,0,1,.122-.1.719.719,0,0,1,.235-.062,3.64,3.64,0,0,1,.376-.014,3.69,3.69,0,0,1,.373.014.636.636,0,0,1,.229.062.317.317,0,0,1,.117.1.255.255,0,0,1,.035.136v1.214a5.618,5.618,0,0,1,1.544-1.269,3.314,3.314,0,0,1,1.555-.4,3.422,3.422,0,0,1,1.542.311,2.761,2.761,0,0,1,1.014.83,3.339,3.339,0,0,1,.557,1.217,7.3,7.3,0,0,1,.168,1.677Z" transform="translate(-3413.245 -1688.812)" fill="#040505"/></g><g transform="translate(47.651 23.556)"><path d="M3426.6,1698.452a.212.212,0,0,1-.081.184.56.56,0,0,1-.225.092,2.087,2.087,0,0,1-.418.03,2.262,2.262,0,0,1-.422-.03.5.5,0,0,1-.229-.092.23.23,0,0,1-.071-.184v-.917a4.534,4.534,0,0,1-1.341,1,3.554,3.554,0,0,1-1.563.355,4.277,4.277,0,0,1-1.31-.187,2.836,2.836,0,0,1-1-.546,2.457,2.457,0,0,1-.643-.876,2.906,2.906,0,0,1-.23-1.182,2.733,2.733,0,0,1,.316-1.344,2.631,2.631,0,0,1,.908-.949,4.458,4.458,0,0,1,1.447-.565,9,9,0,0,1,1.926-.189h1.263v-.712a3.578,3.578,0,0,0-.111-.938,1.625,1.625,0,0,0-.362-.678,1.565,1.565,0,0,0-.646-.406,3.022,3.022,0,0,0-.979-.138,3.958,3.958,0,0,0-1.117.147,6.144,6.144,0,0,0-.866.327c-.248.118-.454.228-.622.327a.864.864,0,0,1-.371.147.256.256,0,0,1-.144-.041.358.358,0,0,1-.108-.122.656.656,0,0,1-.065-.209,1.723,1.723,0,0,1-.021-.281,1.853,1.853,0,0,1,.035-.4.6.6,0,0,1,.173-.279,2.231,2.231,0,0,1,.476-.311,5.161,5.161,0,0,1,.774-.327,6.913,6.913,0,0,1,.958-.244,5.677,5.677,0,0,1,1.05-.1,5.474,5.474,0,0,1,1.682.224,2.7,2.7,0,0,1,1.122.657,2.528,2.528,0,0,1,.62,1.074,5.152,5.152,0,0,1,.194,1.5Zm-1.671-4.187h-1.437a5.461,5.461,0,0,0-1.2.117,2.5,2.5,0,0,0-.847.346,1.443,1.443,0,0,0-.493.551,1.641,1.641,0,0,0-.159.739,1.48,1.48,0,0,0,.454,1.136,1.8,1.8,0,0,0,1.269.422,2.354,2.354,0,0,0,1.228-.336,5.273,5.273,0,0,0,1.188-1.03Z" transform="translate(-3419.063 -1688.812)" fill="#040505"/></g><g transform="translate(58.272 19.245)"><path d="M3426.754,1700.314a.215.215,0,0,1-.041.136.287.287,0,0,1-.132.1.9.9,0,0,1-.254.062,3.422,3.422,0,0,1-.417.019,3.351,3.351,0,0,1-.409-.019,1.009,1.009,0,0,1-.26-.062.273.273,0,0,1-.132-.1.256.256,0,0,1-.036-.136V1686.7a.287.287,0,0,1,.036-.143.27.27,0,0,1,.132-.1,1,1,0,0,1,.26-.06,3.254,3.254,0,0,1,.409-.021,3.319,3.319,0,0,1,.417.021.889.889,0,0,1,.254.06.284.284,0,0,1,.132.1.24.24,0,0,1,.041.143Z" transform="translate(-3425.074 -1686.372)" fill="#040505"/></g><g transform="translate(62.838 19.918)"><path d="M3429.736,1687.751a1.109,1.109,0,0,1-.224.806,1.21,1.21,0,0,1-.825.214,1.186,1.186,0,0,1-.809-.208,1.086,1.086,0,0,1-.219-.792,1.106,1.106,0,0,1,.224-.8,1.2,1.2,0,0,1,.825-.214,1.186,1.186,0,0,1,.81.208A1.086,1.086,0,0,1,3429.736,1687.751Zm-.192,12.271a.228.228,0,0,1-.041.136.31.31,0,0,1-.132.1.924.924,0,0,1-.254.062,3.473,3.473,0,0,1-.418.019,3.356,3.356,0,0,1-.409-.019,1.01,1.01,0,0,1-.259-.062.267.267,0,0,1-.133-.1.243.243,0,0,1-.035-.136v-9.174a.233.233,0,0,1,.168-.233.991.991,0,0,1,.259-.062,3.3,3.3,0,0,1,.409-.02,3.41,3.41,0,0,1,.418.02.908.908,0,0,1,.254.062.3.3,0,0,1,.132.1.246.246,0,0,1,.041.133Z" transform="translate(-3427.658 -1686.753)" fill="#040505"/></g><g transform="translate(67.077 23.556)"><path d="M3436.549,1695.945a2.91,2.91,0,0,1-.26,1.254,2.531,2.531,0,0,1-.739.928,3.345,3.345,0,0,1-1.141.571,5.191,5.191,0,0,1-1.458.193,5.471,5.471,0,0,1-.933-.076,5.643,5.643,0,0,1-.8-.193,4.268,4.268,0,0,1-.6-.246,1.688,1.688,0,0,1-.356-.23.6.6,0,0,1-.165-.285,1.968,1.968,0,0,1-.049-.5,2.4,2.4,0,0,1,.02-.325,1.127,1.127,0,0,1,.051-.216.215.215,0,0,1,.214-.152.726.726,0,0,1,.332.138c.146.092.325.193.539.3a5.156,5.156,0,0,0,.76.3,3.373,3.373,0,0,0,1.008.138,2.981,2.981,0,0,0,.774-.092,1.912,1.912,0,0,0,.6-.27,1.214,1.214,0,0,0,.392-.453,1.444,1.444,0,0,0,.138-.654,1.053,1.053,0,0,0-.2-.652,1.886,1.886,0,0,0-.524-.468,4.348,4.348,0,0,0-.733-.362c-.272-.106-.551-.216-.841-.331s-.57-.247-.846-.392a3.265,3.265,0,0,1-.738-.535,2.458,2.458,0,0,1-.525-.755,2.526,2.526,0,0,1-.2-1.05,2.621,2.621,0,0,1,.208-1.035,2.433,2.433,0,0,1,.625-.866,3.144,3.144,0,0,1,1.046-.6,4.311,4.311,0,0,1,1.461-.224,4.5,4.5,0,0,1,.735.06,5.3,5.3,0,0,1,.663.154,3.223,3.223,0,0,1,.5.2,2.224,2.224,0,0,1,.316.189.584.584,0,0,1,.143.143.415.415,0,0,1,.052.138c.009.051.019.113.03.187a2.032,2.032,0,0,1,.015.276,2.446,2.446,0,0,1-.015.3.731.731,0,0,1-.051.21.266.266,0,0,1-.086.116.179.179,0,0,1-.111.035.56.56,0,0,1-.265-.111,3.553,3.553,0,0,0-.448-.24,4.979,4.979,0,0,0-.647-.239,2.911,2.911,0,0,0-.852-.113,2.627,2.627,0,0,0-.754.1,1.443,1.443,0,0,0-.535.276,1.2,1.2,0,0,0-.316.422,1.314,1.314,0,0,0-.106.53,1.087,1.087,0,0,0,.2.668,1.977,1.977,0,0,0,.53.474,4.648,4.648,0,0,0,.744.368c.279.107.564.221.852.335s.574.244.855.387a3.223,3.223,0,0,1,.749.52,2.336,2.336,0,0,1,.525.735A2.4,2.4,0,0,1,3436.549,1695.945Z" transform="translate(-3430.057 -1688.812)" fill="#040505"/></g><g transform="translate(75.765 23.556)"><path d="M3448.581,1698.443a.231.231,0,0,1-.041.136.318.318,0,0,1-.133.1.931.931,0,0,1-.256.062,3.308,3.308,0,0,1-.406.019,3.431,3.431,0,0,1-.418-.019.969.969,0,0,1-.26-.062.292.292,0,0,1-.138-.1.231.231,0,0,1-.041-.136v-5.574a5.024,5.024,0,0,0-.1-1.06,2.447,2.447,0,0,0-.325-.827,1.547,1.547,0,0,0-.571-.528,1.712,1.712,0,0,0-.817-.184,1.918,1.918,0,0,0-1.166.447,8.187,8.187,0,0,0-1.29,1.316v6.41a.231.231,0,0,1-.041.136.292.292,0,0,1-.138.1.989.989,0,0,1-.26.062,3.308,3.308,0,0,1-.406.019,3.348,3.348,0,0,1-.4-.019.978.978,0,0,1-.265-.062.26.26,0,0,1-.133-.1.243.243,0,0,1-.035-.136v-5.574a4.667,4.667,0,0,0-.113-1.06,2.617,2.617,0,0,0-.336-.827,1.548,1.548,0,0,0-.565-.528,1.676,1.676,0,0,0-.811-.184,1.937,1.937,0,0,0-1.171.447,7.666,7.666,0,0,0-1.285,1.316v6.41a.231.231,0,0,1-.041.136.306.306,0,0,1-.133.1.929.929,0,0,1-.254.062,3.477,3.477,0,0,1-.419.019,3.313,3.313,0,0,1-.406-.019.974.974,0,0,1-.26-.062.257.257,0,0,1-.132-.1.24.24,0,0,1-.037-.136v-9.174a.269.269,0,0,1,.032-.136.247.247,0,0,1,.122-.1.7.7,0,0,1,.235-.062,3.6,3.6,0,0,1,.376-.014,3.715,3.715,0,0,1,.373.014.619.619,0,0,1,.228.062.311.311,0,0,1,.118.1.256.256,0,0,1,.036.136v1.214a5.909,5.909,0,0,1,1.5-1.269,3.005,3.005,0,0,1,1.472-.4,3.673,3.673,0,0,1,1.024.132,2.8,2.8,0,0,1,.8.371,2.554,2.554,0,0,1,.59.571,3.376,3.376,0,0,1,.408.74,9.08,9.08,0,0,1,.871-.846,5.116,5.116,0,0,1,.8-.56,3.172,3.172,0,0,1,.744-.311,2.773,2.773,0,0,1,.728-.1,3.192,3.192,0,0,1,1.487.311,2.68,2.68,0,0,1,.974.83,3.359,3.359,0,0,1,.53,1.217,6.615,6.615,0,0,1,.159,1.474Z" transform="translate(-3434.974 -1688.812)" fill="#040505"/></g><g transform="translate(0.306 39.091)"><path d="M3398.472,1698.675a1.9,1.9,0,0,1-.02.311,1.141,1.141,0,0,1-.046.189.166.166,0,0,1-.067.1.178.178,0,0,1-.1.027.486.486,0,0,1-.179-.046c-.072-.032-.159-.065-.26-.1a3.073,3.073,0,0,0-.362-.1,2.3,2.3,0,0,0-.484-.046,1.529,1.529,0,0,0-.642.124.993.993,0,0,0-.429.382,1.876,1.876,0,0,0-.233.673,6.01,6.01,0,0,0-.072,1v1h2.049a.256.256,0,0,1,.136.035.312.312,0,0,1,.1.122.873.873,0,0,1,.073.219,1.865,1.865,0,0,1,.024.327,1.126,1.126,0,0,1-.092.53.276.276,0,0,1-.244.163h-2.049v8.041a.22.22,0,0,1-.041.138.309.309,0,0,1-.138.1.978.978,0,0,1-.26.06,3.919,3.919,0,0,1-.815,0,.982.982,0,0,1-.26-.06.3.3,0,0,1-.137-.1.229.229,0,0,1-.041-.138v-8.041h-1.3a.263.263,0,0,1-.244-.163,1.258,1.258,0,0,1-.081-.53,2.352,2.352,0,0,1,.02-.327.874.874,0,0,1,.062-.219.271.271,0,0,1,.1-.122.3.3,0,0,1,.143-.035h1.3v-.947a6.6,6.6,0,0,1,.178-1.647,2.847,2.847,0,0,1,.544-1.125,2.185,2.185,0,0,1,.922-.646,3.712,3.712,0,0,1,1.309-.21,3.59,3.59,0,0,1,.695.067,2.769,2.769,0,0,1,.519.143.788.788,0,0,1,.244.136.473.473,0,0,1,.1.159.842.842,0,0,1,.056.233C3398.467,1698.434,3398.472,1698.546,3398.472,1698.675Z" transform="translate(-3392.267 -1697.604)" fill="#040505"/></g><g transform="translate(6.986 43.473)"><path d="M3405.22,1705.028a6.835,6.835,0,0,1-.3,2.064,4.568,4.568,0,0,1-.88,1.625,4.029,4.029,0,0,1-1.468,1.066,5.109,5.109,0,0,1-2.044.381,5.3,5.3,0,0,1-1.972-.335,3.61,3.61,0,0,1-1.4-.979,4.161,4.161,0,0,1-.836-1.56,7.243,7.243,0,0,1-.273-2.078,6.952,6.952,0,0,1,.29-2.064,4.472,4.472,0,0,1,.876-1.626,3.945,3.945,0,0,1,1.463-1.06,5.157,5.157,0,0,1,2.048-.378,5.28,5.28,0,0,1,1.972.338,3.587,3.587,0,0,1,1.4.979,4.209,4.209,0,0,1,.841,1.559A7.061,7.061,0,0,1,3405.22,1705.028Zm-1.744.111a6.875,6.875,0,0,0-.138-1.406,3.443,3.443,0,0,0-.459-1.161,2.271,2.271,0,0,0-.862-.79,2.858,2.858,0,0,0-1.357-.292,2.908,2.908,0,0,0-1.292.265,2.375,2.375,0,0,0-.889.749,3.365,3.365,0,0,0-.52,1.147,5.815,5.815,0,0,0-.169,1.447,6.952,6.952,0,0,0,.138,1.417,3.376,3.376,0,0,0,.463,1.157,2.337,2.337,0,0,0,.869.784,2.879,2.879,0,0,0,1.357.29,2.91,2.91,0,0,0,1.286-.265,2.377,2.377,0,0,0,.894-.744,3.237,3.237,0,0,0,.514-1.141A6.063,6.063,0,0,0,3403.476,1705.139Z" transform="translate(-3396.048 -1700.084)" fill="#040505"/></g><g transform="translate(18.738 43.473)"><path d="M3408.06,1701.144c0,.15,0,.276-.01.378a.825.825,0,0,1-.041.239.33.33,0,0,1-.076.133.164.164,0,0,1-.127.046.55.55,0,0,1-.2-.046c-.076-.03-.166-.06-.265-.092s-.208-.058-.331-.087a1.855,1.855,0,0,0-.4-.041,1.31,1.31,0,0,0-.5.1,1.939,1.939,0,0,0-.514.336,4.408,4.408,0,0,0-.566.622q-.294.387-.652.949v6.032a.232.232,0,0,1-.041.138.321.321,0,0,1-.133.1.923.923,0,0,1-.254.06,3.37,3.37,0,0,1-.418.021,3.267,3.267,0,0,1-.408-.021,1.007,1.007,0,0,1-.26-.06.287.287,0,0,1-.132-.1.257.257,0,0,1-.036-.138v-9.172a.293.293,0,0,1,.03-.138.284.284,0,0,1,.124-.1.715.715,0,0,1,.233-.06,3.564,3.564,0,0,1,.378-.016,3.5,3.5,0,0,1,.371.016.618.618,0,0,1,.229.06.33.33,0,0,1,.117.1.245.245,0,0,1,.037.138v1.336a7.262,7.262,0,0,1,.707-.9,4,4,0,0,1,.627-.546,1.951,1.951,0,0,1,.587-.274,2.273,2.273,0,0,1,.586-.078c.088,0,.188.005.3.016a3.076,3.076,0,0,1,.352.056,2.588,2.588,0,0,1,.331.092.686.686,0,0,1,.208.1.327.327,0,0,1,.083.1.643.643,0,0,1,.035.118,1.409,1.409,0,0,1,.02.208C3408.06,1700.865,3408.06,1700.989,3408.06,1701.144Z" transform="translate(-3402.699 -1700.084)" fill="#040505"/></g><g transform="translate(30.74 40.172)"><path d="M3416.828,1710.68a2.161,2.161,0,0,1-.02.322.693.693,0,0,1-.071.228.323.323,0,0,1-.119.132.259.259,0,0,1-.146.041h-6.329a.714.714,0,0,1-.443-.157.653.653,0,0,1-.209-.555v-11.762a.653.653,0,0,1,.209-.555.715.715,0,0,1,.443-.157h6.257a.267.267,0,0,1,.148.041.272.272,0,0,1,.106.132.933.933,0,0,1,.067.228,1.893,1.893,0,0,1,.024.343,1.713,1.713,0,0,1-.024.32.833.833,0,0,1-.067.224.272.272,0,0,1-.106.127.267.267,0,0,1-.148.041h-5.156v4.138h4.423a.26.26,0,0,1,.148.046.374.374,0,0,1,.111.127.641.641,0,0,1,.065.224,2.085,2.085,0,0,1,.021.337,1.8,1.8,0,0,1-.021.314.636.636,0,0,1-.065.216.291.291,0,0,1-.111.116.316.316,0,0,1-.148.035h-4.423v4.719h5.229a.26.26,0,0,1,.146.041.33.33,0,0,1,.119.127.635.635,0,0,1,.071.225A2.314,2.314,0,0,1,3416.828,1710.68Z" transform="translate(-3409.492 -1698.216)" fill="#040505"/></g><g transform="translate(40.687 43.616)"><path d="M3423.029,1709.653a.241.241,0,0,1-.035.138.278.278,0,0,1-.127.1.89.89,0,0,1-.24.06,2.583,2.583,0,0,1-.362.021,2.785,2.785,0,0,1-.382-.021.841.841,0,0,1-.235-.06.253.253,0,0,1-.116-.1.293.293,0,0,1-.03-.138v-1.212a5.715,5.715,0,0,1-1.549,1.263,3.32,3.32,0,0,1-1.55.4,3.517,3.517,0,0,1-1.544-.305,2.7,2.7,0,0,1-1.013-.831,3.38,3.38,0,0,1-.556-1.223,7.414,7.414,0,0,1-.168-1.7v-5.564a.257.257,0,0,1,.035-.138.331.331,0,0,1,.138-.1.9.9,0,0,1,.265-.06q.164-.016.408-.016c.162,0,.3.005.408.016a.835.835,0,0,1,.26.06.35.35,0,0,1,.136.1.221.221,0,0,1,.043.138v5.34a5.718,5.718,0,0,0,.116,1.29,2.416,2.416,0,0,0,.357.825,1.652,1.652,0,0,0,.606.53,1.849,1.849,0,0,0,.855.189,2.155,2.155,0,0,0,1.259-.449,7.175,7.175,0,0,0,1.331-1.314v-6.41a.245.245,0,0,1,.035-.138.326.326,0,0,1,.138-.1.856.856,0,0,1,.26-.06c.106-.011.244-.016.412-.016s.3.005.408.016a.751.751,0,0,1,.254.06.418.418,0,0,1,.138.1.214.214,0,0,1,.046.138Z" transform="translate(-3415.121 -1700.165)" fill="#040505"/></g><g transform="translate(51.641 43.473)"><path d="M3426.682,1701.144c0,.15,0,.276-.011.378a.921.921,0,0,1-.041.239.335.335,0,0,1-.076.133.168.168,0,0,1-.127.046.543.543,0,0,1-.2-.046c-.078-.03-.166-.06-.265-.092s-.208-.058-.331-.087a1.863,1.863,0,0,0-.4-.041,1.31,1.31,0,0,0-.5.1,1.946,1.946,0,0,0-.514.336,4.183,4.183,0,0,0-.565.622q-.3.387-.652.949v6.032a.236.236,0,0,1-.041.138.338.338,0,0,1-.133.1.926.926,0,0,1-.256.06,3.336,3.336,0,0,1-.417.021,3.237,3.237,0,0,1-.408-.021,1,1,0,0,1-.26-.06.269.269,0,0,1-.133-.1.241.241,0,0,1-.035-.138v-9.172a.293.293,0,0,1,.03-.138.289.289,0,0,1,.124-.1.7.7,0,0,1,.233-.06,4.433,4.433,0,0,1,.75,0,.627.627,0,0,1,.229.06.341.341,0,0,1,.117.1.241.241,0,0,1,.035.138v1.336a7.12,7.12,0,0,1,.709-.9,3.876,3.876,0,0,1,.627-.546,1.93,1.93,0,0,1,.587-.274,2.26,2.26,0,0,1,.585-.078q.132,0,.3.016a3.094,3.094,0,0,1,.352.056,2.682,2.682,0,0,1,.331.092.707.707,0,0,1,.208.1.312.312,0,0,1,.082.1.632.632,0,0,1,.037.118,1.48,1.48,0,0,1,.02.208Q3426.682,1700.911,3426.682,1701.144Z" transform="translate(-3421.321 -1700.084)" fill="#040505"/></g><g transform="translate(58.276 43.473)"><path d="M3434.248,1705.028a6.913,6.913,0,0,1-.295,2.064,4.571,4.571,0,0,1-.882,1.625,4.017,4.017,0,0,1-1.468,1.066,5.1,5.1,0,0,1-2.042.381,5.283,5.283,0,0,1-1.972-.335,3.6,3.6,0,0,1-1.4-.979,4.12,4.12,0,0,1-.836-1.56,7.223,7.223,0,0,1-.276-2.078,7.016,7.016,0,0,1,.29-2.064,4.5,4.5,0,0,1,.876-1.626,3.941,3.941,0,0,1,1.463-1.06,5.163,5.163,0,0,1,2.048-.378,5.3,5.3,0,0,1,1.974.338,3.606,3.606,0,0,1,1.4.979,4.243,4.243,0,0,1,.841,1.559A7.1,7.1,0,0,1,3434.248,1705.028Zm-1.742.111a6.907,6.907,0,0,0-.14-1.406,3.441,3.441,0,0,0-.458-1.161,2.261,2.261,0,0,0-.864-.79,2.859,2.859,0,0,0-1.357-.292,2.9,2.9,0,0,0-1.29.265,2.393,2.393,0,0,0-.891.749,3.365,3.365,0,0,0-.52,1.147,5.815,5.815,0,0,0-.169,1.447,6.781,6.781,0,0,0,.14,1.417,3.309,3.309,0,0,0,.463,1.157,2.33,2.33,0,0,0,.869.784,2.867,2.867,0,0,0,1.357.29,2.906,2.906,0,0,0,1.284-.265,2.368,2.368,0,0,0,.9-.744,3.227,3.227,0,0,0,.513-1.141A5.963,5.963,0,0,0,3432.506,1705.139Z" transform="translate(-3425.076 -1700.084)" fill="#040505"/></g><g transform="translate(70.029 43.473)"><path d="M3440.165,1704.987a8.242,8.242,0,0,1-.26,2.161,4.728,4.728,0,0,1-.763,1.625,3.433,3.433,0,0,1-1.25,1.028,3.825,3.825,0,0,1-1.7.362,3.275,3.275,0,0,1-.754-.081,2.945,2.945,0,0,1-.676-.254,4,4,0,0,1-.658-.438c-.217-.177-.449-.385-.694-.622v4.585a.244.244,0,0,1-.041.143.289.289,0,0,1-.132.1.9.9,0,0,1-.255.06,3.322,3.322,0,0,1-.417.021,3.251,3.251,0,0,1-.408-.021,1.012,1.012,0,0,1-.26-.06.263.263,0,0,1-.132-.1.288.288,0,0,1-.035-.143v-12.81a.291.291,0,0,1,.03-.148.238.238,0,0,1,.122-.1.774.774,0,0,1,.235-.057,3.163,3.163,0,0,1,.347-.016,3.131,3.131,0,0,1,.352.016.762.762,0,0,1,.229.057.275.275,0,0,1,.127.1.259.259,0,0,1,.036.148v1.233a9.6,9.6,0,0,1,.806-.744,4.839,4.839,0,0,1,.779-.525,3.62,3.62,0,0,1,.806-.316,3.8,3.8,0,0,1,2.573.281,3.207,3.207,0,0,1,1.146,1.06,4.716,4.716,0,0,1,.646,1.564A8.441,8.441,0,0,1,3440.165,1704.987Zm-1.742.193a8.583,8.583,0,0,0-.106-1.361,3.942,3.942,0,0,0-.371-1.166,2.174,2.174,0,0,0-.7-.814,1.869,1.869,0,0,0-1.1-.306,2.23,2.23,0,0,0-.646.1,2.748,2.748,0,0,0-.645.306,4.518,4.518,0,0,0-.687.551,8.378,8.378,0,0,0-.76.841v3.649a7.271,7.271,0,0,0,1.323,1.293,2.225,2.225,0,0,0,1.313.449,1.917,1.917,0,0,0,1.092-.306,2.309,2.309,0,0,0,.739-.816,4.129,4.129,0,0,0,.415-1.142A6.168,6.168,0,0,0,3438.423,1705.18Z" transform="translate(-3431.728 -1700.084)" fill="#040505"/></g><g transform="translate(80.321 43.473)"><path d="M3445.992,1704.733a.706.706,0,0,1-.2.566.689.689,0,0,1-.454.168H3439.3a5.663,5.663,0,0,0,.154,1.376,2.652,2.652,0,0,0,.512,1.05,2.3,2.3,0,0,0,.932.671,3.69,3.69,0,0,0,1.4.235,5.82,5.82,0,0,0,1.167-.106,7.073,7.073,0,0,0,.885-.24c.25-.088.454-.168.615-.24a1.014,1.014,0,0,1,.364-.106.234.234,0,0,1,.127.035.23.23,0,0,1,.087.107.718.718,0,0,1,.048.2c.008.085.014.189.014.311,0,.088,0,.164-.009.23s-.016.122-.026.173a.426.426,0,0,1-.051.138.622.622,0,0,1-.092.117,1.461,1.461,0,0,1-.331.184,4.852,4.852,0,0,1-.714.249,9.752,9.752,0,0,1-1.014.219,7.306,7.306,0,0,1-1.228.1,5.688,5.688,0,0,1-1.982-.316,3.68,3.68,0,0,1-1.431-.937,4.011,4.011,0,0,1-.876-1.56,7.245,7.245,0,0,1-.295-2.18,6.855,6.855,0,0,1,.306-2.126,4.461,4.461,0,0,1,.882-1.6,3.834,3.834,0,0,1,1.39-1.011,4.583,4.583,0,0,1,1.824-.352,4.41,4.41,0,0,1,1.841.348,3.454,3.454,0,0,1,1.248.931,3.757,3.757,0,0,1,.719,1.376,6.06,6.06,0,0,1,.23,1.688Zm-1.693-.5a3.063,3.063,0,0,0-.59-2.08,2.248,2.248,0,0,0-1.841-.753,2.435,2.435,0,0,0-1.1.233,2.386,2.386,0,0,0-.79.622,2.844,2.844,0,0,0-.493.9,3.693,3.693,0,0,0-.194,1.074Z" transform="translate(-3437.553 -1700.084)" fill="#040505"/></g></g><g transform="translate(3368.542 1685.012)"><path d="M3361.791,1678.528h3.83v16.549h-3.83Z" transform="translate(-3361.791 -1678.528)" fill="#040505"/><g transform="translate(5.413)"><path d="M3367.659,1694.736a5.9,5.9,0,0,1-2.306-1.786l2.127-2.553a3.824,3.824,0,0,0,3.073,1.821q2.342,0,2.342-2.743V1681.6h-5.816v-3.074h9.621v10.734a6.252,6.252,0,0,1-1.512,4.576,6.005,6.005,0,0,1-4.445,1.524A7.517,7.517,0,0,1,3367.659,1694.736Z" transform="translate(-3365.353 -1678.528)" fill="#040505"/></g><g transform="translate(18.834)"><path d="M3389.529,1691.6h-2.7v3.475H3383.1V1691.6h-8.913v-2.576l7.8-10.5h4.019l-7.235,9.954h4.445v-3.1h3.617v3.1h2.7Z" transform="translate(-3374.184 -1678.528)" fill="#040505"/></g><g transform="translate(0 21.34)"><path d="M3374.771,1706.22v3.114h-12.98V1692.57h12.668v3.112h-8.813v3.64h7.782v3.018h-7.782v3.88Z" transform="translate(-3361.791 -1692.57)" fill="#040505"/></g><g transform="translate(16.524 21.34)"><path d="M3374.664,1707.633a7.651,7.651,0,0,1-2-5.676v-9.387h3.88v9.243q0,4.5,3.735,4.5a3.5,3.5,0,0,0,2.778-1.09,5.082,5.082,0,0,0,.958-3.413v-9.243h3.833v9.387a7.929,7.929,0,0,1-13.184,5.676Z" transform="translate(-3372.664 -1692.57)" fill="#040505"/></g></g><g transform="translate(3359.22 1675.448)"><path d="M3406.145,1734.406l-46.924-4.687v-54.272h47.66l5.066,29.363-1.374.236-4.866-28.207h-45.092v51.618l45.668,4.562Z" transform="translate(-3359.22 -1675.448)" fill="#040505" stroke="#222" stroke-width="1"/></g></g></svg>