<?xml version="1.0" encoding="UTF-8"?>
<svg width="232px" height="55px" viewBox="0 0 232 55" version="1.1" xmlns="http://www.w3.org/2000/svg" xmlns:xlink="http://www.w3.org/1999/xlink">
    <title>JFE_L_POS</title>
    <g id="design" stroke="none" stroke-width="1" fill="none" fill-rule="evenodd">
        <g id="blog-artikel" transform="translate(-1232.000000, -833.000000)">
            <g id="JFE_L_POS" transform="translate(1232.000000, 833.000000)">
                <path d="M54.9889624,27.4993806 C55.0422242,36.1963773 55.0550112,46.4595246 50.5768986,50.5781202 C46.4595712,55.0566555 36.1985374,55.0438685 27.5002725,54.9893385 C18.8032758,55.0438685 8.54139658,55.0553874 4.42237835,50.5781202 C-0.0557343097,46.4595246 -0.0429472505,36.1963773 0.0103145496,27.4993806 C-0.0429472505,18.8028065 -0.0557343097,8.54135004 4.42237835,4.42275453 C8.54139658,-0.0540899996 18.8032758,-0.0429937913 27.5002725,0.0102680089 C36.1968466,-0.0429937913 46.4595712,-0.0540899996 50.5768986,4.42275453 C55.0550112,8.54219546 55.0422242,18.8028065 54.9889624,27.4993806" id="Fill-1" fill="#0097A0"/>
                <path d="M48.0051145,27.4993806 C48.1409109,30.9735506 47.3586811,35.0743921 43.6302494,37.1784446 C40.1242703,39.4162856 33.2885832,39.8864478 27.5002725,39.802645 C21.7123846,39.8864478 14.8750066,39.4162856 11.3698729,37.1784446 C7.64059582,35.076083 6.85752054,30.9735506 6.99331699,27.4993806 C6.85752054,24.0264787 7.64059582,19.9260598 11.3698729,17.8215847 C14.8750066,15.5837436 21.7123846,15.1135814 27.5002725,15.1956934 C33.2885832,15.1135814 40.1242703,15.5837436 43.6302494,17.8215847 C47.3586811,19.9260598 48.1409109,24.0264787 48.0051145,27.4993806" id="Fill-2" fill="#FFFFFE"/>
                <path d="M18.4424905,26.2634743 C18.4424905,21.9735745 21.9207819,18.4935922 26.2115272,18.4935922 L28.7403002,18.4935922 C33.0327363,18.4935922 36.5110278,21.9735745 36.5110278,26.2634743 L36.5110278,28.7939382 C36.5110278,33.0842607 33.0327363,36.5617068 28.7403002,36.5617068 L26.2115272,36.5617068 C21.9207819,36.5617068 18.4424905,33.0842607 18.4424905,28.7939382 L18.4424905,26.2634743" id="Fill-3" fill="#0097A0"/>
                <path d="M30.4638056,27.5283364 C30.4638056,29.1787124 29.1267653,30.518289 27.4767063,30.518289 C25.8263302,30.518289 24.4888672,29.1787124 24.4888672,27.5283364 C24.4888672,25.8787001 25.8263302,24.5408144 27.4767063,24.5408144 C29.1267653,24.5408144 30.4638056,25.8787001 30.4638056,27.5283364" id="Fill-4" fill="#001F37"/>
                <path d="M62.6895196,36.5617068 L62.6895196,33.7310112 C62.968827,33.7649339 63.1591534,33.7817367 63.2607101,33.7817367 C64.250809,33.7817367 64.7459112,33.2699373 64.7459112,32.2458101 L64.7459112,18.2065702 L67.5766068,18.2065702 L67.5766068,31.6999823 C67.5766068,34.9413433 66.4763913,36.5617068 64.2762774,36.5617068 L62.6895196,36.5617068" id="Fill-5" fill="#001F37"/>
                <path d="M71.8595319,33.3882969 C71.8595319,34.1670393 72.2022462,34.5561464 72.8876748,34.5561464 C73.6239347,34.5561464 73.9921175,34.1670393 73.9921175,33.3882969 L73.9921175,26.0132284 C73.9921175,25.3531625 73.6239347,25.0231296 72.8876748,25.0231296 C72.2022462,25.0231296 71.8595319,25.3531625 71.8595319,26.0132284 L71.8595319,33.3882969 Z M69.2573125,26.1147851 C69.2573125,25.0231296 69.6127082,24.1685102 70.3236053,23.5507155 C71.000474,22.966738 71.8932432,22.6747492 73.001913,22.6747492 C74.042843,22.6747492 74.8952431,23.0006606 75.5597475,23.6521666 C76.2240405,24.3039896 76.556187,25.150049 76.556187,26.1909791 L76.556187,33.1851834 C76.556187,34.34479 76.2324948,35.2542564 75.5851103,35.9143223 C74.9377258,36.5743882 74.0385102,36.9044211 72.8876748,36.9044211 C71.7620966,36.9044211 70.8735545,36.5534639 70.2220486,35.8509154 C69.5787855,35.173941 69.2573125,34.2685961 69.2573125,33.1344579 L69.2573125,26.1147851 L69.2573125,26.1147851 Z" id="Fill-6" fill="#001F37"/>
                <path d="M85.3482941,23.0175692 L85.3482941,36.5617068 L82.8349501,36.5617068 L82.8349501,35.0765057 C81.8785626,36.2107496 80.905478,36.7775016 79.9153792,36.7775016 C78.7390754,36.7775016 78.1509764,35.972868 78.1509764,34.3634951 L78.1509764,23.0175692 L80.6770018,23.0175692 L80.6770018,33.4136596 C80.6770018,34.023 80.9010395,34.3276702 81.349749,34.3276702 C81.7982472,34.3276702 82.2932438,33.9892886 82.8349501,33.3121029 L82.8349501,23.0175692 L85.3482941,23.0175692" id="Fill-7" fill="#001F37"/>
                <path d="M87.1453515,36.5617068 L87.1453515,23.0175692 L89.6968454,23.0175692 L89.6968454,24.8581659 C90.3393687,23.5296856 91.2323492,22.8651812 92.3747303,22.8651812 L92.6294147,22.8651812 L92.6294147,25.6958768 C92.3916388,25.5775173 92.1168756,25.5182318 91.8040682,25.5182318 C90.3996052,25.5182318 89.6968454,26.2461431 89.6968454,27.7014372 L89.6968454,36.5617068 L87.1453515,36.5617068" id="Fill-8" fill="#001F37"/>
                <path d="M93.8521112,36.5617068 L93.8521112,23.0175692 L96.4031823,23.0175692 L96.4031823,24.5026645 C97.3595698,23.3856462 98.3201844,22.8271371 99.2850262,22.8271371 C100.469679,22.8271371 101.062533,23.6234221 101.062533,25.2156752 L101.062533,36.5617068 L98.5357679,36.5617068 L98.5357679,26.3432613 C98.5357679,25.6324699 98.3117302,25.2769685 97.8636547,25.2769685 C97.431431,25.2769685 96.9453114,25.6155614 96.4031823,26.2925358 L96.4031823,36.5617068 L93.8521112,36.5617068" id="Fill-9" fill="#001F37"/>
                <path d="M113.510365,18.752398 L113.510365,33.2867401 C113.510365,33.5831674 113.618157,33.8220001 113.833741,34.0039779 C114.049324,34.1860614 114.306122,34.276839 114.602021,34.276839 C114.872557,34.276839 115.121957,34.2387948 115.351279,34.1626008 L115.351279,36.3459119 C114.902147,36.4899513 114.424482,36.5617068 113.916169,36.5617068 C111.96218,36.5617068 110.984657,35.4871711 110.984657,33.3374657 L110.984657,18.752398 L113.510365,18.752398" id="Fill-10" fill="#001F37"/>
                <path d="M116.655348,36.5617068 L119.206419,36.5617068 L119.206419,23.0175692 L116.655348,23.0175692 L116.655348,36.5617068 Z M116.655348,20.7327013 L119.206419,20.7327013 L119.206419,18.2065702 L116.655348,18.2065702 L116.655348,20.7327013 Z" id="Fill-11" fill="#001F37"/>
                <path d="M120.546418,32.8931946 L122.983357,32.3473668 C123.186259,33.8198865 123.741069,34.5561464 124.646731,34.5561464 C125.424523,34.5561464 125.814475,34.1584794 125.814475,33.3629341 C125.814475,32.6437941 124.938403,31.6283325 123.186259,30.316338 C121.612711,29.1403513 120.825409,27.8242353 120.825409,26.3687298 C120.825409,25.2601657 121.166749,24.3675022 121.847317,23.6903164 C122.528941,23.013342 123.428262,22.6747492 124.54528,22.6747492 C125.611573,22.6747492 126.465453,22.9965392 127.109033,23.6394852 C127.72725,24.2659454 128.073875,25.1163377 128.149963,26.1909791 L125.76375,26.7621696 C125.577756,25.6197885 125.128624,25.0484923 124.418467,25.0484923 C123.690344,25.0484923 123.326811,25.4463707 123.326811,26.2417046 C123.326811,26.8256822 123.922836,27.5916376 125.115942,28.5392538 C125.361116,28.7341244 125.611573,28.9372378 125.865201,29.1485942 C126.669412,29.81722 127.244301,30.4052133 127.590925,30.912997 C128.073875,31.6155455 128.314821,32.3899551 128.314821,33.2359089 C128.314821,34.3615928 127.97031,35.2586949 127.280231,35.9270037 C126.590153,36.5954181 125.679207,36.9298895 124.54528,36.9298895 C123.394445,36.9298895 122.459193,36.536344 121.739525,35.7493586 C121.095945,35.0384616 120.698595,34.0864069 120.546418,32.8931946" id="Fill-12" fill="#001F37"/>
                <path d="M129.733022,36.5617068 L129.733022,23.0175692 L132.28515,23.0175692 L132.28515,24.4265763 C133.155938,23.3602835 134.099644,22.8271371 135.115211,22.8271371 C136.080053,22.8271371 136.681362,23.3602835 136.918081,24.4265763 C137.764563,23.3602835 138.699815,22.8271371 139.723837,22.8271371 C140.967669,22.8271371 141.589056,23.5908733 141.589056,25.1183456 L141.589056,36.5617068 L139.037985,36.5617068 L139.037985,26.3432613 C139.037985,25.6324699 138.813948,25.2769685 138.364815,25.2769685 C137.925194,25.2769685 137.442245,25.6155614 136.918081,26.2925358 L136.918081,36.5617068 L134.569912,36.5617068 L134.569912,26.3432613 C134.569912,25.6324699 134.328966,25.2769685 133.846017,25.2769685 C133.372578,25.2769685 132.851585,25.6155614 132.28515,26.2925358 L132.28515,36.5617068 L129.733022,36.5617068" id="Fill-13" fill="#001F37"/>
                <path d="M144.217273,36.5617068 L144.217273,25.1246863 L142.782163,25.1246863 L142.782163,23.0175692 L144.217273,23.0175692 L144.217273,21.4308114 C144.217273,19.281423 145.194796,18.2065702 147.149842,18.2065702 C147.648643,18.2065702 148.134763,18.2744156 148.609258,18.4096837 L148.609258,20.6183576 L147.936088,20.4914381 C147.140331,20.4914381 146.742981,20.8723022 146.742981,21.6339248 L146.742981,23.0175692 L148.35563,23.0175692 L148.35563,25.1246863 L146.742981,25.1246863 L146.742981,36.5617068 L144.217273,36.5617068" id="Fill-14" fill="#001F37"/>
                <path d="M156.846871,23.0175692 L156.846871,36.5617068 L154.333844,36.5617068 L154.333844,35.0765057 C153.377457,36.2107496 152.404161,36.7775016 151.413956,36.7775016 C150.237758,36.7775016 149.650188,35.972868 149.650188,34.3634951 L149.650188,23.0175692 L152.175896,23.0175692 L152.175896,33.4136596 C152.175896,34.023 152.399934,34.3276702 152.849066,34.3276702 C153.297141,34.3276702 153.792772,33.9892886 154.333844,33.3121029 L154.333844,23.0175692 L156.846871,23.0175692" id="Fill-15" fill="#001F37"/>
                <path d="M158.644457,36.5617068 L158.644457,23.0175692 L161.195528,23.0175692 L161.195528,24.5026645 C162.151916,23.3856462 163.11253,22.8271371 164.077372,22.8271371 C165.262024,22.8271371 165.854879,23.6234221 165.854879,25.2156752 L165.854879,36.5617068 L163.328114,36.5617068 L163.328114,26.3432613 C163.328114,25.6324699 163.104076,25.2769685 162.656001,25.2769685 C162.223777,25.2769685 161.737657,25.6155614 161.195528,26.2925358 L161.195528,36.5617068 L158.644457,36.5617068" id="Fill-16" fill="#001F37"/>
                <path d="M172.280112,25.5435946 C171.950396,25.1798503 171.602715,24.9977668 171.239182,24.9977668 C170.544876,24.9977668 170.198252,25.4632792 170.198252,26.3940925 L170.198252,33.3882969 C170.198252,34.200645 170.494151,34.6068719 171.087005,34.6068719 C171.501264,34.6068719 171.899671,34.399637 172.280112,33.9848502 L172.280112,25.5435946 Z M172.280112,36.5617068 L172.280112,35.5208824 C171.636532,36.3332306 170.841832,36.7394575 169.893899,36.7394575 C168.361565,36.7394575 167.596455,35.7452372 167.596455,33.7563739 L167.596455,26.2417046 C167.596455,23.9739566 168.412291,22.8398185 170.046075,22.8398185 C170.841832,22.8398185 171.585806,23.2630596 172.280112,24.1092247 L172.280112,18.2065702 L174.831183,18.2065702 L174.831183,36.5617068 L172.280112,36.5617068 L172.280112,36.5617068 Z" id="Fill-17" fill="#001F37"/>
                <polyline id="Fill-18" fill="#001F37" points="182.524554 36.5617068 182.524554 18.2065702 189.898777 18.2065702 189.898777 20.8596208 185.354616 20.8596208 185.354616 25.6705141 188.629582 25.6705141 188.629582 28.323459 185.354616 28.323459 185.354616 33.8072051 189.898777 33.8072051 189.898777 36.5617068 182.524554 36.5617068"/>
                <path d="M198.618284,23.0175692 L198.618284,36.5617068 L196.105257,36.5617068 L196.105257,35.0765057 C195.148869,36.2107496 194.175573,36.7775016 193.185369,36.7775016 C192.00917,36.7775016 191.4216,35.972868 191.4216,34.3634951 L191.4216,23.0175692 L193.947308,23.0175692 L193.947308,33.4136596 C193.947308,34.023 194.171346,34.3276702 194.620478,34.3276702 C195.068554,34.3276702 195.564184,33.9892886 196.105257,33.3121029 L196.105257,23.0175692 L198.618284,23.0175692" id="Fill-19" fill="#001F37"/>
                <path d="M200.415869,36.5617068 L200.415869,23.0175692 L202.96694,23.0175692 L202.96694,24.8581659 C203.61052,23.5296856 204.503501,22.8651812 205.645882,22.8651812 L205.89951,22.8651812 L205.89951,25.6958768 C205.662791,25.5775173 205.388027,25.5182318 205.074163,25.5182318 C203.6697,25.5182318 202.96694,26.2461431 202.96694,27.7014372 L202.96694,36.5617068 L200.415869,36.5617068" id="Fill-20" fill="#001F37"/>
                <path d="M209.601416,33.3882969 C209.601416,34.1670393 209.943814,34.5561464 210.628608,34.5561464 C211.365185,34.5561464 211.732945,34.1670393 211.732945,33.3882969 L211.732945,26.0132284 C211.732945,25.3531625 211.365185,25.0231296 210.628608,25.0231296 C209.943814,25.0231296 209.601416,25.3531625 209.601416,26.0132284 L209.601416,33.3882969 Z M206.998563,26.1147851 C206.998563,25.0231296 207.353641,24.1685102 208.064856,23.5507155 C208.742253,22.966738 209.634176,22.6747492 210.743797,22.6747492 C211.784727,22.6747492 212.636493,23.0006606 213.301209,23.6521666 C213.965925,24.3039896 214.297754,25.150049 214.297754,26.1909791 L214.297754,33.1851834 C214.297754,34.34479 213.974379,35.2542564 213.326572,35.9143223 C212.678765,36.5743882 211.779443,36.9044211 210.628608,36.9044211 C209.503136,36.9044211 208.615439,36.5534639 207.963405,35.8509154 C207.319824,35.173941 206.998563,34.2685961 206.998563,33.1344579 L206.998563,26.1147851 L206.998563,26.1147851 Z" id="Fill-21" fill="#001F37"/>
                <path d="M218.478383,25.5943201 L218.478383,34.0356814 C218.826064,34.4164398 219.172689,34.6068719 219.519313,34.6068719 C220.213619,34.6068719 220.560243,34.1331166 220.560243,33.1851834 L220.560243,26.1909791 C220.560243,25.3956451 220.264344,24.9977668 219.67149,24.9977668 C219.240323,24.9977668 218.842973,25.1966531 218.478383,25.5943201 Z M215.927312,40.8267722 L215.927312,23.0175692 L218.478383,23.0175692 L218.478383,24.0837563 C219.121963,23.2460454 219.91772,22.8271371 220.865653,22.8271371 C222.39693,22.8271371 223.163096,23.8308684 223.163096,25.838331 L223.163096,33.3342953 C223.163096,35.6045795 222.346204,36.7394575 220.71242,36.7394575 C219.91772,36.7394575 219.172689,36.3164277 218.478383,35.4700512 L218.478383,40.8267722 L215.927312,40.8267722 L215.927312,40.8267722 Z" id="Fill-22" fill="#001F37"/>
                <path d="M227.081643,28.9967346 L229.326248,28.9967346 L229.287147,26.5999536 C229.270238,25.5373596 228.907762,25.0062211 228.197605,25.0062211 C227.444119,25.0062211 227.072132,25.5373596 227.081643,26.5999536 L227.081643,28.9967346 Z M231.061483,36.8554921 L228.452289,36.8554921 C225.797653,36.9062176 224.470335,35.5231017 224.470335,32.7049818 L224.470335,26.6246823 C224.470335,25.4658154 224.818017,24.5111188 225.516549,23.7618605 C226.215082,23.0135534 227.139766,22.6389243 228.289545,22.6389243 C229.441437,22.6389243 230.328077,22.9832237 230.949464,23.6734079 C231.571909,24.3623239 231.883659,25.5190772 231.883659,27.1432451 C231.883659,30.0190653 230.281578,31.3938327 227.081643,31.2672302 L227.081643,32.624772 C227.072132,33.8855127 227.434608,34.5151432 228.168015,34.5151432 L231.061483,34.5151432 L231.061483,36.8554921 L231.061483,36.8554921 Z" id="Fill-23" fill="#001F37"/>
                <path d="M107.2204,30.5702826 L104.974739,30.5702826 L105.01384,32.966958 C105.030749,34.0296577 105.394281,34.5607962 106.104439,34.5607962 C106.856867,34.5607962 107.228855,34.0296577 107.2204,32.966958 L107.2204,30.5702826 Z M103.24056,22.7115252 L105.848698,22.7115252 C108.503333,22.6607996 109.831708,24.0438099 109.831708,26.8620355 L109.831708,32.942335 C109.831708,34.1012018 109.48297,35.0558985 108.784437,35.805051 C108.085905,36.5534639 107.161221,36.9279873 106.011442,36.9279873 C104.85955,36.9279873 103.973967,36.5837935 103.351522,35.8935037 C102.729078,35.2045876 102.418384,34.0478343 102.418384,32.4237722 C102.418384,29.547952 104.019408,28.1730789 107.2204,28.2996814 L107.2204,26.9422452 C107.228855,25.6813989 106.867435,25.051874 106.132972,25.051874 L103.24056,25.051874 L103.24056,22.7115252 L103.24056,22.7115252 Z" id="Fill-24" fill="#001F37"/>
            </g>
        </g>
    </g>
</svg>